Coordinates
version=1
nRows=15
nColumns=63
inDegrees=yes

Units are S.I. units (second, meters, Newtons, ...)
If the header above contains a line with 'inDegrees', this indicates whether rotational values are in degrees (yes) or radians (no).

endheader
time	pelvis_tilt	pelvis_list	pelvis_rotation	pelvis_tx	pelvis_ty	pelvis_tz	hip_flexion_r	hip_adduction_r	hip_rotation_r	knee_angle_r	knee_angle_r_beta	ankle_angle_r	subtalar_angle_r	mtp_angle_r	hip_flexion_l	hip_adduction_l	hip_rotation_l	knee_angle_l	knee_angle_l_beta	ankle_angle_l	subtalar_angle_l	mtp_angle_l	L5_S1_Flex_Ext	L5_S1_Lat_Bending	L5_S1_axial_rotation	L4_L5_Flex_Ext	L4_L5_Lat_Bending	L4_L5_axial_rotation	L3_L4_Flex_Ext	L3_L4_Lat_Bending	L3_L4_axial_rotation	L2_L3_Flex_Ext	L2_L3_Lat_Bending	L2_L3_axial_rotation	L1_L2_Flex_Ext	L1_L2_Lat_Bending	L1_L2_axial_rotation	L1_T12_Flex_Ext	L1_T12_Lat_Bending	L1_T12_axial_rotation	Abs_r3	Abs_r2	Abs_r1	Abs_t1	Abs_t2	neck_flexion	neck_bending	neck_rotation	arm_flex_r	arm_add_r	arm_rot_r	elbow_flex_r	pro_sup_r	wrist_flex_r	wrist_dev_r	arm_flex_l	arm_add_l	arm_rot_l	elbow_flex_l	pro_sup_l	wrist_flex_l	wrist_dev_l
0.000000	-0.803203	-4.410433	83.185754	0.239865	0.751027	0.710656	0.585163	-1.511060	1.381761	4.571500	0.079788	33.492629	15.567614	0.000000	1.869638	1.106346	-20.160641	9.791799	0.170899	39.710483	6.106621	0.000000	-0.011626	-0.602345	1.937881	-0.021591	-0.801119	2.058999	-0.019101	-1.464541	2.058999	-0.013287	-1.464541	1.695646	-0.010796	-1.228302	1.574528	-0.006643	-0.933032	1.453411	-0.083044	-6.813846	10.777914	0.000000	0.000000	25.993237	3.485079	-4.345688	10.512171	4.683537	30.518016	37.120383	53.914916	-3.889270	4.176773	15.658215	-7.267525	53.091316	45.913043	61.284815	-2.572470	6.686769
0.016667	-1.001730	-4.527476	82.559319	0.240598	0.750561	0.711350	0.953813	-1.636957	3.463286	4.772222	0.083291	33.337826	13.668486	0.000000	2.395544	1.229920	-19.863508	10.487260	0.183037	39.879057	4.861998	0.000000	-0.004608	-0.623873	2.085060	-0.008557	-0.829751	2.215376	-0.007570	-1.516884	2.215376	-0.005266	-1.516884	1.824427	-0.004279	-1.272201	1.694111	-0.002633	-0.966379	1.563795	-0.032912	-7.057372	11.596478	0.000000	0.000000	26.201817	3.535974	-4.319238	9.878490	4.565435	29.925170	38.023809	52.683937	-4.029879	5.794315	15.716211	-7.270563	53.068945	46.054553	62.641681	-2.450991	6.948189
0.033333	-1.164351	-4.631890	82.101704	0.241170	0.750169	0.711847	1.239331	-1.739379	5.148603	4.920288	0.085875	33.225366	12.073317	0.000000	2.835142	1.334986	-19.559778	11.063288	0.193091	39.993749	3.800852	0.000000	0.001602	-0.641854	2.192136	0.002976	-0.853665	2.329145	0.002633	-1.560603	2.329145	0.001831	-1.560603	1.918119	0.001488	-1.308868	1.781111	0.000916	-0.994231	1.644102	0.011446	-7.260776	12.192005	0.000000	0.000000	26.393874	3.552167	-4.312144	9.336611	4.475970	29.466715	38.762415	51.828839	-4.154478	7.233474	15.671742	-7.275963	52.884316	46.201496	63.877496	-2.318606	7.267363
0.050000	-1.293550	-4.724657	81.796572	0.241594	0.749842	0.712165	1.449678	-1.820048	6.468365	5.021039	0.087634	33.150626	10.762133	0.000000	3.195632	1.422637	-19.250557	11.530254	0.201241	40.059096	2.905740	0.000000	0.007015	-0.656426	2.262657	0.013028	-0.873047	2.404073	0.011526	-1.596035	2.404073	0.008018	-1.596035	1.979825	0.006515	-1.338585	1.838409	0.004009	-1.016804	1.696992	0.050111	-7.425627	12.584217	0.000000	0.000000	26.568962	3.538759	-4.317985	8.880603	4.411981	29.131369	39.350589	51.310947	-4.261772	8.502743	15.537707	-7.283779	52.561388	46.352411	64.988890	-2.182138	7.630273
0.066667	-1.391809	-4.806762	81.627583	0.241881	0.749574	0.712326	1.592813	-1.880683	7.453228	5.079814	0.088659	33.108984	9.714964	0.000000	3.484214	1.493965	-18.936947	11.898530	0.207669	40.079635	2.159219	0.000000	0.011642	-0.667730	2.300166	0.021621	-0.888081	2.443927	0.019127	-1.623519	2.443927	0.013306	-1.623519	2.012645	0.010811	-1.361635	1.868885	0.006652	-1.034314	1.725125	0.083160	-7.553496	12.792834	0.000000	0.000000	26.726636	3.500849	-4.330341	8.504536	4.370306	28.907851	39.802717	51.091584	-4.350465	9.610613	15.327009	-7.294065	52.124115	46.505840	65.972492	-2.048411	8.022900
0.083333	-1.461611	-4.879190	81.578398	0.242046	0.749356	0.712349	1.676696	-1.923005	8.133846	5.101954	0.089046	33.095818	8.911835	0.000000	3.708088	1.550064	-18.620053	12.178486	0.212555	40.059900	1.543847	0.000000	0.015494	-0.675903	2.308211	0.028774	-0.898951	2.452474	0.025456	-1.643391	2.452474	0.017708	-1.643391	2.019684	0.014388	-1.378302	1.875421	0.008853	-1.046974	1.731158	0.110674	-7.645954	12.837576	0.000000	0.000000	26.866453	3.443537	-4.342790	8.202480	4.347786	28.784879	40.133186	51.132077	-4.419262	10.565577	15.052547	-7.306873	51.596456	46.660322	66.824934	-1.924251	8.431226
0.100000	-1.505439	-4.942924	81.632679	0.242101	0.749182	0.712253	1.709288	-1.948732	8.540876	5.092799	0.088886	33.106507	8.332775	0.000000	3.874453	1.592025	-18.300978	12.380494	0.216080	40.004429	1.042179	0.000000	0.018582	-0.681085	2.290336	0.034509	-0.905843	2.433482	0.030529	-1.655991	2.433482	0.021238	-1.655991	2.004044	0.017256	-1.388869	1.860898	0.010618	-1.055001	1.717752	0.132733	-7.704572	12.738162	0.000000	0.000000	26.987966	3.371921	-4.348911	7.968505	4.341259	28.751173	40.356382	51.393751	-4.466868	11.376126	14.727225	-7.322258	51.002367	46.814398	67.542844	-1.816481	8.841232
0.116667	-1.525774	-4.998950	81.774087	0.242059	0.749044	0.712060	1.698547	-1.959585	8.704972	5.057689	0.088273	33.136427	7.957811	0.000000	3.990510	1.620942	-17.980827	12.514925	0.218427	39.917759	0.636774	0.000000	0.020918	-0.683414	2.250088	0.038847	-0.908941	2.390719	0.034366	-1.661654	2.390719	0.023907	-1.661654	1.968827	0.019424	-1.393619	1.828197	0.011953	-1.058609	1.687566	0.149415	-7.730921	12.514315	0.000000	0.000000	27.090732	3.291100	-4.342285	7.796680	4.347565	28.795451	40.486693	51.837930	-4.491986	12.050751	14.363943	-7.340272	50.365806	46.966608	68.122854	-1.731926	9.238898
0.133333	-1.525101	-5.048251	81.986283	0.241932	0.748935	0.711789	1.652434	-1.957283	8.656788	5.001963	0.087301	33.180957	7.766970	0.000000	4.063459	1.637907	-17.660703	12.592150	0.219774	39.804424	0.310188	0.000000	0.022512	-0.683030	2.191012	0.041807	-0.908430	2.327951	0.036985	-1.660719	2.327951	0.025729	-1.660719	1.917136	0.020904	-1.392835	1.780198	0.012863	-1.058013	1.643259	0.160800	-7.726571	12.185754	0.000000	0.000000	27.174305	3.206175	-4.316490	7.681075	4.363544	28.906432	40.538505	52.425940	-4.493323	12.597945	13.975601	-7.360968	49.710728	47.115494	68.561594	-1.677410	9.610207
0.150000	-1.505901	-5.091811	82.252928	0.241733	0.748846	0.711460	1.578910	-1.943547	8.426981	4.930962	0.086062	33.235474	7.740279	0.000000	4.100499	1.644013	-17.341710	12.622540	0.220305	39.668962	0.044979	0.000000	0.023375	-0.680071	2.116655	0.043410	-0.904494	2.248946	0.038403	-1.653523	2.248946	0.026716	-1.653523	1.852073	0.021706	-1.386800	1.719782	0.013357	-1.053429	1.587491	0.166967	-7.693094	11.772199	0.000000	0.000000	27.238242	3.122244	-4.265105	7.615760	4.386034	29.072834	40.526206	53.119106	-4.469582	13.026199	13.575102	-7.384401	49.061091	47.259594	68.855693	-1.659757	9.941140
0.166667	-1.470657	-5.130616	82.557683	0.241475	0.748771	0.711093	1.485933	-1.920097	8.046206	4.850026	0.084649	33.295357	7.857767	0.000000	4.108830	1.640352	-17.024952	12.616466	0.220199	39.515909	-0.176297	0.000000	0.023519	-0.674675	2.030561	0.043678	-0.897318	2.157471	0.038640	-1.640405	2.157471	0.026880	-1.640405	1.776741	0.021840	-1.375797	1.649831	0.013439	-1.045072	1.522921	0.167997	-7.632059	11.293371	0.000000	0.000000	27.282096	3.044407	-4.181710	7.594804	4.411874	29.283376	40.464181	53.878753	-4.419468	13.344004	13.175346	-7.410622	48.440853	47.397450	69.001782	-1.685793	10.217677
0.183333	-1.423637	-5.147042	82.852710	0.241190	0.748724	0.710673	1.354114	-1.892290	7.593694	4.748307	0.082874	33.298986	8.059010	0.000000	4.070660	1.638691	-16.674515	12.581328	0.219586	39.349099	-0.445941	0.000000	0.021216	-0.666469	1.941197	0.039401	-0.886403	2.062521	0.034856	-1.620452	2.062521	0.024248	-1.620452	1.698547	0.019701	-1.359063	1.577222	0.012123	-1.032360	1.455897	0.151546	-7.539228	10.796353	0.000000	0.000000	27.278425	3.006058	-3.984122	7.609233	4.436859	29.521635	40.384935	54.653169	-4.337265	13.628927	12.793472	-7.459137	47.984571	47.538782	69.096324	-1.853133	10.335853
0.200000	-1.358513	-5.177083	83.133899	0.240873	0.748646	0.710323	1.270377	-1.851044	7.043431	4.700658	0.082042	33.338135	8.400518	0.000000	4.045570	1.617254	-16.347862	12.551593	0.219067	39.164598	-0.722017	0.000000	0.020569	-0.654713	1.847970	0.038199	-0.870768	1.963469	0.033793	-1.591869	1.963469	0.023508	-1.591869	1.616974	0.019100	-1.335091	1.501476	0.011753	-1.014151	1.385978	0.146922	-7.406245	10.277857	0.000000	0.000000	27.241975	2.976423	-3.725270	7.666315	4.450068	29.809385	40.297192	55.370912	-4.166441	13.801767	12.453078	-7.513845	47.598485	47.682719	68.893163	-2.057024	10.382459
0.216667	-1.278537	-5.206102	83.399161	0.240514	0.748543	0.710060	1.194368	-1.798894	6.476388	4.654164	0.081230	33.374188	8.793093	0.000000	4.022963	1.581203	-16.034476	12.532917	0.218741	38.962240	-1.021544	0.000000	0.018385	-0.639657	1.751302	0.034142	-0.850743	1.860758	0.030204	-1.555261	1.860758	0.021012	-1.555261	1.532389	0.017072	-1.304388	1.422933	0.010505	-0.990828	1.313476	0.131320	-7.235924	9.740214	0.000000	0.000000	27.183230	2.984217	-3.377684	7.765477	4.438810	30.131249	40.234406	55.979819	-3.905004	13.926851	12.159148	-7.561427	47.257270	47.822982	68.428394	-2.290997	10.372067
0.233333	-1.189654	-5.241356	83.686236	0.240101	0.748402	0.709882	1.132530	-1.740612	5.830698	4.611238	0.080481	33.413026	9.259603	0.000000	4.020427	1.531595	-15.707504	12.536655	0.218806	38.761905	-1.315872	0.000000	0.014979	-0.622729	1.647635	0.027817	-0.828230	1.750612	0.024608	-1.514104	1.750612	0.017119	-1.514104	1.441681	0.013909	-1.269869	1.338703	0.008559	-0.964607	1.235726	0.106991	-7.044437	9.163652	0.000000	0.000000	27.119102	3.021748	-2.989140	7.881594	4.415737	30.443252	40.203734	56.458699	-3.621567	13.918025	11.934460	-7.617199	47.032983	47.966257	67.697959	-2.561293	10.277732
